<svg width="64" height="64" viewBox="0 0 64 64" fill="none" xmlns="http://www.w3.org/2000/svg">
<mask id="mask0_19013_6202" style="mask-type:alpha" maskUnits="userSpaceOnUse" x="0" y="0" width="64" height="64">
<rect width="64" height="64" fill="#D9D9D9"/>
</mask>
<g mask="url(#mask0_19013_6202)">
<path d="M32 32.0001C29.0667 32.0001 26.5555 30.9556 24.4667 28.8667C22.3778 26.7779 21.3333 24.2667 21.3333 21.3334C21.3333 18.4001 22.3778 15.889 24.4667 13.8001C26.5555 11.7112 29.0667 10.6667 32 10.6667C34.9333 10.6667 37.4444 11.7112 39.5333 13.8001C41.6222 15.889 42.6667 18.4001 42.6667 21.3334C42.6667 24.2667 41.6222 26.7779 39.5333 28.8667C37.4444 30.9556 34.9333 32.0001 32 32.0001ZM48 53.3334H16C14.5333 53.3334 13.2778 52.8112 12.2333 51.7668C11.1889 50.7223 10.6667 49.4668 10.6667 48.0001V45.8667C10.6667 44.3556 11.0555 42.9667 11.8333 41.7001C12.6111 40.4334 13.6444 39.4667 14.9333 38.8001C17.6889 37.4223 20.4889 36.389 23.3333 35.7001C26.1778 35.0112 29.0667 34.6667 32 34.6667C34.9333 34.6667 37.8222 35.0112 40.6667 35.7001C43.5111 36.389 46.3111 37.4223 49.0667 38.8001C50.3555 39.4667 51.3889 40.4334 52.1667 41.7001C52.9444 42.9667 53.3333 44.3556 53.3333 45.8667V48.0001C53.3333 49.4668 52.8111 50.7223 51.7667 51.7668C50.7222 52.8112 49.4667 53.3334 48 53.3334ZM16 48.0001H48V45.8667C48 45.3779 47.8778 44.9334 47.6333 44.5334C47.3889 44.1334 47.0667 43.8223 46.6667 43.6001C44.2667 42.4001 41.8444 41.5001 39.4 40.9001C36.9555 40.3001 34.4889 40.0001 32 40.0001C29.5111 40.0001 27.0444 40.3001 24.6 40.9001C22.1555 41.5001 19.7333 42.4001 17.3333 43.6001C16.9333 43.8223 16.6111 44.1334 16.3667 44.5334C16.1222 44.9334 16 45.3779 16 45.8667V48.0001ZM32 26.6667C33.4667 26.6667 34.7222 26.1445 35.7667 25.1001C36.8111 24.0556 37.3333 22.8001 37.3333 21.3334C37.3333 19.8667 36.8111 18.6112 35.7667 17.5667C34.7222 16.5223 33.4667 16.0001 32 16.0001C30.5333 16.0001 29.2778 16.5223 28.2333 17.5667C27.1889 18.6112 26.6667 19.8667 26.6667 21.3334C26.6667 22.8001 27.1889 24.0556 28.2333 25.1001C29.2778 26.1445 30.5333 26.6667 32 26.6667Z" fill="white"/>
</g>
</svg>
