<svg width="231" height="24" viewBox="0 0 231 24" fill="none" xmlns="http://www.w3.org/2000/svg">
<rect x="4" y="4" width="16" height="16" rx="3" stroke="#4589FF" stroke-width="2"/>
<path d="M33.5625 18.5V7.07812H34.8906V18.5H33.5625ZM45.1953 9.79688C46.2161 9.79688 46.974 10.026 47.4688 10.4844C47.9635 10.9427 48.2109 11.6745 48.2109 12.6797V18.5H47.2656L47.0156 17.2344H46.9531C46.7135 17.5469 46.4635 17.8099 46.2031 18.0234C45.9427 18.2318 45.6406 18.3906 45.2969 18.5C44.9583 18.6042 44.5417 18.6562 44.0469 18.6562C43.526 18.6562 43.0625 18.5651 42.6562 18.3828C42.2552 18.2005 41.9375 17.9245 41.7031 17.5547C41.474 17.1849 41.3594 16.7161 41.3594 16.1484C41.3594 15.2943 41.6979 14.638 42.375 14.1797C43.0521 13.7214 44.0833 13.4714 45.4688 13.4297L46.9453 13.3672V12.8438C46.9453 12.1042 46.7865 11.5859 46.4688 11.2891C46.151 10.9922 45.7031 10.8438 45.125 10.8438C44.6771 10.8438 44.25 10.9089 43.8438 11.0391C43.4375 11.1693 43.0521 11.3229 42.6875 11.5L42.2891 10.5156C42.6745 10.3177 43.1172 10.1484 43.6172 10.0078C44.1172 9.86719 44.6432 9.79688 45.1953 9.79688ZM46.9297 14.2812L45.625 14.3359C44.5573 14.3776 43.8047 14.5521 43.3672 14.8594C42.9297 15.1667 42.7109 15.6016 42.7109 16.1641C42.7109 16.6536 42.8594 17.0156 43.1562 17.25C43.4531 17.4844 43.8464 17.6016 44.3359 17.6016C45.0964 17.6016 45.7188 17.3906 46.2031 16.9688C46.6875 16.5469 46.9297 15.9141 46.9297 15.0703V14.2812ZM54.3125 18.6562C53.5417 18.6562 52.862 18.4974 52.2734 18.1797C51.6849 17.862 51.2266 17.3776 50.8984 16.7266C50.5703 16.0755 50.4062 15.2552 50.4062 14.2656C50.4062 13.2292 50.5781 12.3828 50.9219 11.7266C51.2708 11.0651 51.75 10.5755 52.3594 10.2578C52.9688 9.9401 53.6615 9.78125 54.4375 9.78125C54.8646 9.78125 55.276 9.82552 55.6719 9.91406C56.0729 9.9974 56.401 10.1042 56.6562 10.2344L56.2656 11.3203C56.0052 11.2161 55.7031 11.1224 55.3594 11.0391C55.0208 10.9557 54.7031 10.9141 54.4062 10.9141C53.8125 10.9141 53.3177 11.0417 52.9219 11.2969C52.5312 11.5521 52.237 11.9271 52.0391 12.4219C51.8464 12.9167 51.75 13.526 51.75 14.25C51.75 14.9427 51.8438 15.5339 52.0312 16.0234C52.224 16.513 52.5078 16.888 52.8828 17.1484C53.263 17.4036 53.737 17.5312 54.3047 17.5312C54.7578 17.5312 55.1667 17.4844 55.5312 17.3906C55.8958 17.2917 56.2266 17.1771 56.5234 17.0469V18.2031C56.237 18.349 55.9167 18.4609 55.5625 18.5391C55.2135 18.6172 54.7969 18.6562 54.3125 18.6562ZM61.9844 18.6562C61.2135 18.6562 60.5339 18.4974 59.9453 18.1797C59.3568 17.862 58.8984 17.3776 58.5703 16.7266C58.2422 16.0755 58.0781 15.2552 58.0781 14.2656C58.0781 13.2292 58.25 12.3828 58.5938 11.7266C58.9427 11.0651 59.4219 10.5755 60.0312 10.2578C60.6406 9.9401 61.3333 9.78125 62.1094 9.78125C62.5365 9.78125 62.9479 9.82552 63.3438 9.91406C63.7448 9.9974 64.0729 10.1042 64.3281 10.2344L63.9375 11.3203C63.6771 11.2161 63.375 11.1224 63.0312 11.0391C62.6927 10.9557 62.375 10.9141 62.0781 10.9141C61.4844 10.9141 60.9896 11.0417 60.5938 11.2969C60.2031 11.5521 59.9089 11.9271 59.7109 12.4219C59.5182 12.9167 59.4219 13.526 59.4219 14.25C59.4219 14.9427 59.5156 15.5339 59.7031 16.0234C59.8958 16.513 60.1797 16.888 60.5547 17.1484C60.9349 17.4036 61.4089 17.5312 61.9766 17.5312C62.4297 17.5312 62.8385 17.4844 63.2031 17.3906C63.5677 17.2917 63.8984 17.1771 64.1953 17.0469V18.2031C63.9089 18.349 63.5885 18.4609 63.2344 18.5391C62.8854 18.6172 62.4688 18.6562 61.9844 18.6562ZM69.5234 9.78125C70.2526 9.78125 70.8776 9.94271 71.3984 10.2656C71.9193 10.5885 72.3177 11.0417 72.5938 11.625C72.8698 12.2031 73.0078 12.8802 73.0078 13.6562V14.4609H67.0938C67.1094 15.4661 67.3594 16.2318 67.8438 16.7578C68.3281 17.2839 69.0104 17.5469 69.8906 17.5469C70.4323 17.5469 70.9115 17.4974 71.3281 17.3984C71.7448 17.2995 72.1771 17.1536 72.625 16.9609V18.1016C72.1927 18.2943 71.763 18.4349 71.3359 18.5234C70.9141 18.612 70.4141 18.6562 69.8359 18.6562C69.013 18.6562 68.2943 18.4896 67.6797 18.1562C67.0703 17.8177 66.5964 17.3229 66.2578 16.6719C65.9193 16.0208 65.75 15.224 65.75 14.2812C65.75 13.3594 65.9036 12.5625 66.2109 11.8906C66.5234 11.2135 66.9609 10.6927 67.5234 10.3281C68.0911 9.96354 68.7578 9.78125 69.5234 9.78125ZM69.5078 10.8438C68.8151 10.8438 68.263 11.0703 67.8516 11.5234C67.4401 11.9766 67.1953 12.6094 67.1172 13.4219H71.6484C71.6432 12.9115 71.5625 12.4635 71.4062 12.0781C71.2552 11.6875 71.0234 11.3854 70.7109 11.1719C70.3984 10.9531 69.9974 10.8438 69.5078 10.8438ZM79.2344 9.78125C80.3021 9.78125 81.1536 10.1484 81.7891 10.8828C82.4245 11.6172 82.7422 12.7214 82.7422 14.1953C82.7422 15.1693 82.5964 15.987 82.3047 16.6484C82.013 17.3099 81.6016 17.8099 81.0703 18.1484C80.5443 18.487 79.9219 18.6562 79.2031 18.6562C78.75 18.6562 78.3516 18.5964 78.0078 18.4766C77.6641 18.3568 77.3698 18.1953 77.125 17.9922C76.8802 17.7891 76.6771 17.5677 76.5156 17.3281H76.4219C76.4375 17.5312 76.4557 17.776 76.4766 18.0625C76.5026 18.349 76.5156 18.599 76.5156 18.8125V22.3281H75.2109V9.9375H76.2812L76.4531 11.2031H76.5156C76.6823 10.9427 76.8854 10.7057 77.125 10.4922C77.3646 10.2734 77.6562 10.1016 78 9.97656C78.349 9.84635 78.7604 9.78125 79.2344 9.78125ZM79.0078 10.875C78.4141 10.875 77.9349 10.9896 77.5703 11.2188C77.2109 11.4479 76.9479 11.7917 76.7812 12.25C76.6146 12.7031 76.526 13.2734 76.5156 13.9609V14.2109C76.5156 14.9349 76.5938 15.5469 76.75 16.0469C76.9115 16.5469 77.1745 16.9271 77.5391 17.1875C77.9089 17.4479 78.4036 17.5781 79.0234 17.5781C79.5547 17.5781 79.9974 17.4349 80.3516 17.1484C80.7057 16.862 80.9688 16.4635 81.1406 15.9531C81.3177 15.4375 81.4062 14.8464 81.4062 14.1797C81.4062 13.1693 81.2083 12.3672 80.8125 11.7734C80.4219 11.1745 79.8203 10.875 79.0078 10.875ZM87.7734 17.5938C87.987 17.5938 88.2057 17.5755 88.4297 17.5391C88.6536 17.5026 88.8359 17.4583 88.9766 17.4062V18.4141C88.8255 18.4818 88.6146 18.5391 88.3438 18.5859C88.0781 18.6328 87.8177 18.6562 87.5625 18.6562C87.1094 18.6562 86.6979 18.5781 86.3281 18.4219C85.9583 18.2604 85.6615 17.9896 85.4375 17.6094C85.2188 17.2292 85.1094 16.7031 85.1094 16.0312V10.9531H83.8906V10.3203L85.1172 9.8125L85.6328 7.95312H86.4141V9.9375H88.9219V10.9531H86.4141V15.9922C86.4141 16.5286 86.5365 16.9297 86.7812 17.1953C87.0312 17.4609 87.362 17.5938 87.7734 17.5938ZM97.6328 17.5938C97.8464 17.5938 98.0651 17.5755 98.2891 17.5391C98.513 17.5026 98.6953 17.4583 98.8359 17.4062V18.4141C98.6849 18.4818 98.474 18.5391 98.2031 18.5859C97.9375 18.6328 97.6771 18.6562 97.4219 18.6562C96.9688 18.6562 96.5573 18.5781 96.1875 18.4219C95.8177 18.2604 95.5208 17.9896 95.2969 17.6094C95.0781 17.2292 94.9688 16.7031 94.9688 16.0312V10.9531H93.75V10.3203L94.9766 9.8125L95.4922 7.95312H96.2734V9.9375H98.7812V10.9531H96.2734V15.9922C96.2734 16.5286 96.3958 16.9297 96.6406 17.1953C96.8906 17.4609 97.2214 17.5938 97.6328 17.5938ZM101.867 6.34375V9.97656C101.867 10.1849 101.862 10.3958 101.852 10.6094C101.841 10.8177 101.823 11.0104 101.797 11.1875H101.883C102.06 10.8854 102.284 10.6328 102.555 10.4297C102.831 10.2214 103.143 10.0651 103.492 9.96094C103.841 9.85156 104.211 9.79688 104.602 9.79688C105.289 9.79688 105.862 9.90625 106.32 10.125C106.784 10.3438 107.13 10.6823 107.359 11.1406C107.594 11.599 107.711 12.1927 107.711 12.9219V18.5H106.43V13.0078C106.43 12.2943 106.266 11.7604 105.938 11.4062C105.615 11.0521 105.117 10.875 104.445 10.875C103.81 10.875 103.302 10.9974 102.922 11.2422C102.547 11.4818 102.276 11.8359 102.109 12.3047C101.948 12.7734 101.867 13.3464 101.867 14.0234V18.5H100.57V6.34375H101.867ZM113.68 9.78125C114.409 9.78125 115.034 9.94271 115.555 10.2656C116.076 10.5885 116.474 11.0417 116.75 11.625C117.026 12.2031 117.164 12.8802 117.164 13.6562V14.4609H111.25C111.266 15.4661 111.516 16.2318 112 16.7578C112.484 17.2839 113.167 17.5469 114.047 17.5469C114.589 17.5469 115.068 17.4974 115.484 17.3984C115.901 17.2995 116.333 17.1536 116.781 16.9609V18.1016C116.349 18.2943 115.919 18.4349 115.492 18.5234C115.07 18.612 114.57 18.6562 113.992 18.6562C113.169 18.6562 112.451 18.4896 111.836 18.1562C111.227 17.8177 110.753 17.3229 110.414 16.6719C110.076 16.0208 109.906 15.224 109.906 14.2812C109.906 13.3594 110.06 12.5625 110.367 11.8906C110.68 11.2135 111.117 10.6927 111.68 10.3281C112.247 9.96354 112.914 9.78125 113.68 9.78125ZM113.664 10.8438C112.971 10.8438 112.419 11.0703 112.008 11.5234C111.596 11.9766 111.352 12.6094 111.273 13.4219H115.805C115.799 12.9115 115.719 12.4635 115.562 12.0781C115.411 11.6875 115.18 11.3854 114.867 11.1719C114.555 10.9531 114.154 10.8438 113.664 10.8438Z" fill="#42526E"/>
<path d="M130.547 7.07812C132.021 7.07812 133.096 7.36719 133.773 7.94531C134.456 8.51823 134.797 9.34115 134.797 10.4141C134.797 10.8984 134.716 11.3594 134.555 11.7969C134.398 12.2292 134.143 12.612 133.789 12.9453C133.435 13.2734 132.969 13.5339 132.391 13.7266C131.818 13.9141 131.115 14.0078 130.281 14.0078H128.891V18.5H127.562V7.07812H130.547ZM130.422 8.21094H128.891V12.8672H130.133C130.862 12.8672 131.469 12.7891 131.953 12.6328C132.443 12.4766 132.81 12.224 133.055 11.875C133.299 11.5208 133.422 11.0521 133.422 10.4688C133.422 9.70833 133.18 9.14323 132.695 8.77344C132.211 8.39844 131.453 8.21094 130.422 8.21094ZM140.883 9.78125C141.055 9.78125 141.234 9.79167 141.422 9.8125C141.609 9.82812 141.776 9.85156 141.922 9.88281L141.758 11.0859C141.617 11.0495 141.461 11.0208 141.289 11C141.117 10.9792 140.956 10.9688 140.805 10.9688C140.461 10.9688 140.135 11.0391 139.828 11.1797C139.526 11.3151 139.26 11.513 139.031 11.7734C138.802 12.0286 138.622 12.3385 138.492 12.7031C138.362 13.0625 138.297 13.4635 138.297 13.9062V18.5H136.992V9.9375H138.07L138.211 11.5156H138.266C138.443 11.1979 138.656 10.9089 138.906 10.6484C139.156 10.3828 139.445 10.1719 139.773 10.0156C140.107 9.85938 140.477 9.78125 140.883 9.78125ZM144.836 9.9375V18.5H143.539V9.9375H144.836ZM144.203 6.73438C144.417 6.73438 144.599 6.80469 144.75 6.94531C144.906 7.08073 144.984 7.29427 144.984 7.58594C144.984 7.8724 144.906 8.08594 144.75 8.22656C144.599 8.36719 144.417 8.4375 144.203 8.4375C143.979 8.4375 143.792 8.36719 143.641 8.22656C143.495 8.08594 143.422 7.8724 143.422 7.58594C143.422 7.29427 143.495 7.08073 143.641 6.94531C143.792 6.80469 143.979 6.73438 144.203 6.73438ZM149.469 18.5L146.219 9.9375H147.609L149.492 15.1172C149.622 15.4714 149.755 15.862 149.891 16.2891C150.026 16.7161 150.12 17.0599 150.172 17.3203H150.227C150.289 17.0599 150.393 16.7161 150.539 16.2891C150.685 15.8568 150.818 15.4661 150.938 15.1172L152.82 9.9375H154.211L150.953 18.5H149.469ZM158.789 9.79688C159.81 9.79688 160.568 10.026 161.062 10.4844C161.557 10.9427 161.805 11.6745 161.805 12.6797V18.5H160.859L160.609 17.2344H160.547C160.307 17.5469 160.057 17.8099 159.797 18.0234C159.536 18.2318 159.234 18.3906 158.891 18.5C158.552 18.6042 158.135 18.6562 157.641 18.6562C157.12 18.6562 156.656 18.5651 156.25 18.3828C155.849 18.2005 155.531 17.9245 155.297 17.5547C155.068 17.1849 154.953 16.7161 154.953 16.1484C154.953 15.2943 155.292 14.638 155.969 14.1797C156.646 13.7214 157.677 13.4714 159.062 13.4297L160.539 13.3672V12.8438C160.539 12.1042 160.38 11.5859 160.062 11.2891C159.745 10.9922 159.297 10.8438 158.719 10.8438C158.271 10.8438 157.844 10.9089 157.438 11.0391C157.031 11.1693 156.646 11.3229 156.281 11.5L155.883 10.5156C156.268 10.3177 156.711 10.1484 157.211 10.0078C157.711 9.86719 158.237 9.79688 158.789 9.79688ZM160.523 14.2812L159.219 14.3359C158.151 14.3776 157.398 14.5521 156.961 14.8594C156.523 15.1667 156.305 15.6016 156.305 16.1641C156.305 16.6536 156.453 17.0156 156.75 17.25C157.047 17.4844 157.44 17.6016 157.93 17.6016C158.69 17.6016 159.312 17.3906 159.797 16.9688C160.281 16.5469 160.523 15.9141 160.523 15.0703V14.2812ZM167.906 18.6562C167.135 18.6562 166.456 18.4974 165.867 18.1797C165.279 17.862 164.82 17.3776 164.492 16.7266C164.164 16.0755 164 15.2552 164 14.2656C164 13.2292 164.172 12.3828 164.516 11.7266C164.865 11.0651 165.344 10.5755 165.953 10.2578C166.562 9.9401 167.255 9.78125 168.031 9.78125C168.458 9.78125 168.87 9.82552 169.266 9.91406C169.667 9.9974 169.995 10.1042 170.25 10.2344L169.859 11.3203C169.599 11.2161 169.297 11.1224 168.953 11.0391C168.615 10.9557 168.297 10.9141 168 10.9141C167.406 10.9141 166.911 11.0417 166.516 11.2969C166.125 11.5521 165.831 11.9271 165.633 12.4219C165.44 12.9167 165.344 13.526 165.344 14.25C165.344 14.9427 165.438 15.5339 165.625 16.0234C165.818 16.513 166.102 16.888 166.477 17.1484C166.857 17.4036 167.331 17.5312 167.898 17.5312C168.352 17.5312 168.76 17.4844 169.125 17.3906C169.49 17.2917 169.82 17.1771 170.117 17.0469V18.2031C169.831 18.349 169.51 18.4609 169.156 18.5391C168.807 18.6172 168.391 18.6562 167.906 18.6562ZM170.797 9.9375H172.188L174.078 14.9062C174.188 15.1979 174.289 15.4792 174.383 15.75C174.477 16.0156 174.56 16.2708 174.633 16.5156C174.706 16.7604 174.763 16.9974 174.805 17.2266H174.859C174.932 16.9661 175.036 16.625 175.172 16.2031C175.307 15.776 175.453 15.3411 175.609 14.8984L177.398 9.9375H178.797L175.07 19.7578C174.872 20.2839 174.641 20.7422 174.375 21.1328C174.115 21.5234 173.797 21.8229 173.422 22.0312C173.047 22.2448 172.594 22.3516 172.062 22.3516C171.818 22.3516 171.602 22.3359 171.414 22.3047C171.227 22.2786 171.065 22.2474 170.93 22.2109V21.1719C171.044 21.1979 171.182 21.2214 171.344 21.2422C171.51 21.263 171.682 21.2734 171.859 21.2734C172.182 21.2734 172.461 21.2109 172.695 21.0859C172.935 20.9661 173.141 20.7891 173.312 20.5547C173.484 20.3203 173.633 20.0417 173.758 19.7188L174.227 18.5156L170.797 9.9375ZM188.344 9.78125C189.411 9.78125 190.263 10.1484 190.898 10.8828C191.534 11.6172 191.852 12.7214 191.852 14.1953C191.852 15.1693 191.706 15.987 191.414 16.6484C191.122 17.3099 190.711 17.8099 190.18 18.1484C189.654 18.487 189.031 18.6562 188.312 18.6562C187.859 18.6562 187.461 18.5964 187.117 18.4766C186.773 18.3568 186.479 18.1953 186.234 17.9922C185.99 17.7891 185.786 17.5677 185.625 17.3281H185.531C185.547 17.5312 185.565 17.776 185.586 18.0625C185.612 18.349 185.625 18.599 185.625 18.8125V22.3281H184.32V9.9375H185.391L185.562 11.2031H185.625C185.792 10.9427 185.995 10.7057 186.234 10.4922C186.474 10.2734 186.766 10.1016 187.109 9.97656C187.458 9.84635 187.87 9.78125 188.344 9.78125ZM188.117 10.875C187.523 10.875 187.044 10.9896 186.68 11.2188C186.32 11.4479 186.057 11.7917 185.891 12.25C185.724 12.7031 185.635 13.2734 185.625 13.9609V14.2109C185.625 14.9349 185.703 15.5469 185.859 16.0469C186.021 16.5469 186.284 16.9271 186.648 17.1875C187.018 17.4479 187.513 17.5781 188.133 17.5781C188.664 17.5781 189.107 17.4349 189.461 17.1484C189.815 16.862 190.078 16.4635 190.25 15.9531C190.427 15.4375 190.516 14.8464 190.516 14.1797C190.516 13.1693 190.318 12.3672 189.922 11.7734C189.531 11.1745 188.93 10.875 188.117 10.875ZM201.5 14.2031C201.5 14.9062 201.409 15.5339 201.227 16.0859C201.044 16.638 200.781 17.1042 200.438 17.4844C200.094 17.8646 199.677 18.1562 199.188 18.3594C198.703 18.5573 198.154 18.6562 197.539 18.6562C196.966 18.6562 196.44 18.5573 195.961 18.3594C195.487 18.1562 195.076 17.8646 194.727 17.4844C194.383 17.1042 194.115 16.638 193.922 16.0859C193.734 15.5339 193.641 14.9062 193.641 14.2031C193.641 13.2656 193.799 12.4688 194.117 11.8125C194.435 11.151 194.888 10.6484 195.477 10.3047C196.07 9.95573 196.776 9.78125 197.594 9.78125C198.375 9.78125 199.057 9.95573 199.641 10.3047C200.229 10.6536 200.685 11.1589 201.008 11.8203C201.336 12.4766 201.5 13.2708 201.5 14.2031ZM194.984 14.2031C194.984 14.8906 195.076 15.487 195.258 15.9922C195.44 16.4974 195.721 16.888 196.102 17.1641C196.482 17.4401 196.971 17.5781 197.57 17.5781C198.164 17.5781 198.651 17.4401 199.031 17.1641C199.417 16.888 199.701 16.4974 199.883 15.9922C200.065 15.487 200.156 14.8906 200.156 14.2031C200.156 13.5208 200.065 12.9323 199.883 12.4375C199.701 11.9375 199.419 11.5521 199.039 11.2812C198.659 11.0104 198.167 10.875 197.562 10.875C196.672 10.875 196.018 11.1693 195.602 11.7578C195.19 12.3464 194.984 13.1615 194.984 14.2031ZM205.047 18.5H203.742V6.34375H205.047V18.5ZM209.086 9.9375V18.5H207.789V9.9375H209.086ZM208.453 6.73438C208.667 6.73438 208.849 6.80469 209 6.94531C209.156 7.08073 209.234 7.29427 209.234 7.58594C209.234 7.8724 209.156 8.08594 209 8.22656C208.849 8.36719 208.667 8.4375 208.453 8.4375C208.229 8.4375 208.042 8.36719 207.891 8.22656C207.745 8.08594 207.672 7.8724 207.672 7.58594C207.672 7.29427 207.745 7.08073 207.891 6.94531C208.042 6.80469 208.229 6.73438 208.453 6.73438ZM215.266 18.6562C214.495 18.6562 213.815 18.4974 213.227 18.1797C212.638 17.862 212.18 17.3776 211.852 16.7266C211.523 16.0755 211.359 15.2552 211.359 14.2656C211.359 13.2292 211.531 12.3828 211.875 11.7266C212.224 11.0651 212.703 10.5755 213.312 10.2578C213.922 9.9401 214.615 9.78125 215.391 9.78125C215.818 9.78125 216.229 9.82552 216.625 9.91406C217.026 9.9974 217.354 10.1042 217.609 10.2344L217.219 11.3203C216.958 11.2161 216.656 11.1224 216.312 11.0391C215.974 10.9557 215.656 10.9141 215.359 10.9141C214.766 10.9141 214.271 11.0417 213.875 11.2969C213.484 11.5521 213.19 11.9271 212.992 12.4219C212.799 12.9167 212.703 13.526 212.703 14.25C212.703 14.9427 212.797 15.5339 212.984 16.0234C213.177 16.513 213.461 16.888 213.836 17.1484C214.216 17.4036 214.69 17.5312 215.258 17.5312C215.711 17.5312 216.12 17.4844 216.484 17.3906C216.849 17.2917 217.18 17.1771 217.477 17.0469V18.2031C217.19 18.349 216.87 18.4609 216.516 18.5391C216.167 18.6172 215.75 18.6562 215.266 18.6562ZM218.156 9.9375H219.547L221.438 14.9062C221.547 15.1979 221.648 15.4792 221.742 15.75C221.836 16.0156 221.919 16.2708 221.992 16.5156C222.065 16.7604 222.122 16.9974 222.164 17.2266H222.219C222.292 16.9661 222.396 16.625 222.531 16.2031C222.667 15.776 222.812 15.3411 222.969 14.8984L224.758 9.9375H226.156L222.43 19.7578C222.232 20.2839 222 20.7422 221.734 21.1328C221.474 21.5234 221.156 21.8229 220.781 22.0312C220.406 22.2448 219.953 22.3516 219.422 22.3516C219.177 22.3516 218.961 22.3359 218.773 22.3047C218.586 22.2786 218.424 22.2474 218.289 22.2109V21.1719C218.404 21.1979 218.542 21.2214 218.703 21.2422C218.87 21.263 219.042 21.2734 219.219 21.2734C219.542 21.2734 219.82 21.2109 220.055 21.0859C220.294 20.9661 220.5 20.7891 220.672 20.5547C220.844 20.3203 220.992 20.0417 221.117 19.7188L221.586 18.5156L218.156 9.9375Z" fill="#005DFF"/>
</svg>
