<svg width="94" height="9" viewBox="0 0 94 9" fill="none" xmlns="http://www.w3.org/2000/svg">
<path d="M6.03906 0.0644531L5.68652 3.74756L9.35107 2.68066L9.59229 4.3042L6.08545 4.66602L8.34912 7.68115L6.84619 8.50684L5.16699 5.2041L3.62695 8.50684L2.06836 7.68115L4.31348 4.66602L0.825195 4.3042L1.08496 2.68066L4.69385 3.74756L4.33203 0.0644531H6.03906ZM16.5039 0.0644531L16.1514 3.74756L19.8159 2.68066L20.0571 4.3042L16.5503 4.66602L18.814 7.68115L17.311 8.50684L15.6318 5.2041L14.0918 8.50684L12.5332 7.68115L14.7783 4.66602L11.29 4.3042L11.5498 2.68066L15.1587 3.74756L14.7969 0.0644531H16.5039ZM26.9688 0.0644531L26.6162 3.74756L30.2808 2.68066L30.522 4.3042L27.0151 4.66602L29.2788 7.68115L27.7759 8.50684L26.0967 5.2041L24.5566 8.50684L22.998 7.68115L25.2432 4.66602L21.7549 4.3042L22.0146 2.68066L25.6235 3.74756L25.2617 0.0644531H26.9688ZM37.4336 0.0644531L37.0811 3.74756L40.7456 2.68066L40.9868 4.3042L37.48 4.66602L39.7437 7.68115L38.2407 8.50684L36.5615 5.2041L35.0215 8.50684L33.4629 7.68115L35.708 4.66602L32.2197 4.3042L32.4795 2.68066L36.0884 3.74756L35.7266 0.0644531H37.4336ZM47.8984 0.0644531L47.5459 3.74756L51.2104 2.68066L51.4517 4.3042L47.9448 4.66602L50.2085 7.68115L48.7056 8.50684L47.0264 5.2041L45.4863 8.50684L43.9277 7.68115L46.1729 4.66602L42.6846 4.3042L42.9443 2.68066L46.5532 3.74756L46.1914 0.0644531H47.8984ZM58.3633 0.0644531L58.0107 3.74756L61.6753 2.68066L61.9165 4.3042L58.4097 4.66602L60.6733 7.68115L59.1704 8.50684L57.4912 5.2041L55.9512 8.50684L54.3926 7.68115L56.6377 4.66602L53.1494 4.3042L53.4092 2.68066L57.0181 3.74756L56.6562 0.0644531H58.3633ZM68.8281 0.0644531L68.4756 3.74756L72.1401 2.68066L72.3813 4.3042L68.8745 4.66602L71.1382 7.68115L69.6353 8.50684L67.9561 5.2041L66.416 8.50684L64.8574 7.68115L67.1025 4.66602L63.6143 4.3042L63.874 2.68066L67.4829 3.74756L67.1211 0.0644531H68.8281ZM79.293 0.0644531L78.9404 3.74756L82.605 2.68066L82.8462 4.3042L79.3394 4.66602L81.603 7.68115L80.1001 8.50684L78.4209 5.2041L76.8809 8.50684L75.3223 7.68115L77.5674 4.66602L74.0791 4.3042L74.3389 2.68066L77.9478 3.74756L77.5859 0.0644531H79.293ZM89.7578 0.0644531L89.4053 3.74756L93.0698 2.68066L93.311 4.3042L89.8042 4.66602L92.0679 7.68115L90.5649 8.50684L88.8857 5.2041L87.3457 8.50684L85.7871 7.68115L88.0322 4.66602L84.5439 4.3042L84.8037 2.68066L88.4126 3.74756L88.0508 0.0644531H89.7578Z" fill="black"/>
</svg>
